/* XPM */
static char *ba573da4722d48ebe08ee0728bfa2e21woCbsoWYIqHQYlWe[] = {
/* columns rows colors chars-per-pixel */
"64 64 93 2 ",
"   c #5A4434",
".  c #644836",
"X  c #6B4C37",
"o  c #6C4E39",
"O  c #75533B",
"+  c #79573D",
"@  c #7C593F",
"#  c #6A5747",
"$  c #6B5847",
"%  c #6C5A49",
"&  c #745A44",
"*  c #7E5B42",
"=  c #745D4B",
"-  c #7C5F4B",
";  c #75604D",
":  c #7C624D",
">  c #815E43",
",  c #856244",
"<  c #8A6447",
"1  c #84634C",
"2  c #8A664B",
"3  c #84684F",
"4  c #8D694C",
"5  c #936C4E",
"6  c #96714F",
"7  c #98704F",
"8  c #856650",
"9  c #876851",
"0  c #8C6C52",
"q  c #936C51",
"w  c #996F50",
"e  c #8D7156",
"r  c #8F765B",
"t  c #957254",
"y  c #9B7353",
"u  c #9E7956",
"i  c #947659",
"p  c #9B7758",
"a  c #96795C",
"s  c #9C7B5C",
"d  c #A17655",
"f  c #A27956",
"g  c #A37D5A",
"h  c #A97F5B",
"j  c #967E62",
"k  c #9C7E60",
"l  c #9F805F",
"z  c #A5815D",
"x  c #AB835D",
"c  c #9E8264",
"v  c #9F8568",
"b  c #A38463",
"n  c #AB8661",
"m  c #A68866",
"M  c #AD8964",
"N  c #A38768",
"B  c #A68B6C",
"V  c #AA8D6C",
"C  c #B18C65",
"Z  c #B28E69",
"A  c #AD916F",
"S  c #B59067",
"D  c #B5926C",
"F  c #B9956E",
"G  c #BA986F",
"H  c #A78E70",
"J  c #A88F70",
"K  c #AC9273",
"L  c #AF9779",
"P  c #AF987A",
"I  c #B59672",
"U  c #B99771",
"Y  c #B69875",
"T  c #BC9B75",
"R  c #B09778",
"E  c #B49B7B",
"W  c #BD9E79",
"Q  c #BEA17C",
"!  c #C09F79",
"~  c #C1A27D",
"^  c #B69F80",
"/  c #B89F80",
"(  c #B7A182",
")  c #BCA484",
"_  c #BEA788",
"`  c #BFA98A",
"'  c #C3A682",
"]  c #C5A985",
"[  c #C6AC89",
"{  c #C8AE8B",
"}  c #C7B08E",
"|  c #CAB08E",
" . c #CBB392",
/* pixels */
"o X O + , 4 6 u z z z x C G D S Z Z D D D F F T F D C C C C C S F F S S C x f f h x C x x x h f f f f f u 6 7 6 7 5 < , @ + O + ",
"    . O + , 5 7 u f x M S G G Y U U T T ! ~ ~ ~ ! ! T G F D S G ! ~ ~ ~ F S C x x C C C x x d d 7 y 7 7 y 6 y 6 5 4 < > @ @ O + ",
". o O * , 6 u l z x x G G Q Q G T T ! ' ~ ' ] ' ~ ~ ! ! T T T T ~ ~ ~ ~ ! F F S F F D Z x C x x x x f f z z x z f y 6 6 < < , > ",
"O * < t u z z x x C G G Q Q Q Q T T ! ! ~ ] ] ] ] ~ ~ ! ~ T T ~ ~ ~ ~ ~ ! ! T T ! ! ! T S S S C C x x x x S M x x f u u u 6 5 < ",
", < 6 u z x Z A I Q Q Q Q Q Q Q W / ' ' ' ] [ [ ] ' ' Q Q Q Q ~ ~ ~ ' Q ! T T T T T Y T U U I F C C M D D Z S M z z z l l 6 6 e ",
"3 4 e i a l c v B J K A K K K J K K K K K R K K K A A V K K P P P L L L K A K K K K J J J K K K A V B A B H B N l l l l 6 6 e e ",
"< 4 7 u z M Z Z I Q Q Q Q Q Q Q ' ' ' ' ' / / ' Q Q Q ~ ~ ' ' ] ] ] ' ' ' ' ' ] ] ' ' ~ ~ ' ~ W T T T T Q Q Q Q G G C x z z l l ",
"< 5 7 d z x S D Y G G Q Q Q Q Q ! ! ! U ! ! T ! T T T T Q ~ ' ~ ~ Q T T T U T W ! W W ! T T T W Q T G T G U G I I S C x 6 l 6 6 ",
"4 5 y f h M C Z Z S C S D F T T ! ! ! T T T W W W Q ! ! Q ~ ' ] ] ' ~ T T T T T ! ~ ~ ~ ~ ! ~ ' [ ' ' ~ ~ ! ! ! Q G F Z x z u u ",
"2 2 q y g h n n x z M M M C D F T U F Z D D D D F U U U T T T T T W ! T U F F F F T T ! W W W ! ' ' ' ' ~ W T U G A D x x l u u ",
"< 4 5 y s g h M S S Z S Z C C Z Z Z M M M M C Z Z Z Z C C M Z D U D D C M n M C M C Z F D Z Z Z Z U T U I Z Z M z x z l f y y 6 ",
"q w p f n V V D A A I A I I Y Y E T Y I I I U Y E W E Y I D D Y Y Y I D Z C m m M m M M Z M V n n V V Z V V m m z m z z z l u u ",
"0 e q 0 w k b V V A J I K R R I D J K R E E E E ^ ( ( ( ^ E ( E E E E E E E E E E R Y R E R Y E Y E E E E E R R E R Y K K K H H ",
"< > > 8 q d h h n C C Z D Z Z Z Z Z F U U W ~ ~ ' { { | | | | { { { { { | | | | { { { [ ] ~ ~ ' ' [ [ [ ] ] ] ' ~ Q Y G D D A M ",
"2 0 q q y d h n C C C C M M M n M M M Z C Z D F T ~ ] ] ] { { { { { { { { { { ] [ [ ] [ ] ] ] ' ' ' ] ] ] ] ' ~ ~ Q Q Q Q Q T T ",
"w y w w d h n C Z U U T U U U U T T T W ! ! ~ ~ ] ' ] ] { { { }  . . . . . .{ ] [ { { { | | { { [ [ ] [ ] ' ] ' ' ~ Q Q T Q T Y ",
"w d d d d g h M Z Z D F D D F F F T T ! ~ ] ] [ | } { } } } } | {  . .{ { { { { { { { { { { { { [ ] ] ' ~ ~ ! ! T ~ Q T T T G G ",
"p d f f g g h h M n x x n C D F D D S D F T ~ ~ ~ Q ~ ] [ | { { { { [ [ ] ] ] ] ] ] ] ] ] [ { [ ] ] ' ~ ~ Q T T T T T T T D D C ",
"0 r i a k k k N k k k s g b m K V K V V V K I K K A K I Y R P L L L L L R K R K K L K K I K K V K J I K K V V V V B V V B B m N ",
"g g n M Z U U E T ) ' [ [ ) W W W ~ Q ) ) _ [ ] ' ) Q T T Q Q W W W Q W T T U T I T Y T T Y U U D I Z D I I D D D C M M M M M M ",
"x n C S U T T ! ' ' ' { { ] ' ' ~ ] ] ~ ' ] ] ] ~ ~ ~ ~ ~ ~ ] { { [ ] ] ] ' ' ' ~ ~ ' ' ' ] [ ] ' ' ' ' ' ' ' ~ ~ ~ T D D D G G ",
"d h h C Z Z U T T ! ' [ ] ' ' ' ] ] ] ] ] ~ ] ' ~ ~ ! ~ ' ] ' ] [ ] ] ' ' ' ' ] { ] ] ] ' ] ' ' ~ ~ ~ ~ ~ ~ ~ ~ ~ T G S C C S S ",
"d d f x C S F U ! ! ~ ! ! ~ ! ~ ~ ~ ! T T T T ! G ! G ~ ~ ~ ~ ~ ~ ~ Q T T T W ! ~ ~ ~ ! ! ! ! ~ ! ! ! ! ! ! T ! G G F C x x x x ",
"d d h n C D F U F F Z D F U T T ~ ~ ! ~ T ! T T ! ~ ~ ~ ~ ~ ' ] ' ' ~ ! T T T T ! ~ ' ~ ~ ~ ~ ] { { ] ~ ~ ~ ~ ~ ~ T T F S C x x ",
"w y p f h n M h m h V Z Z Z D I F F I D D D D D I I I T I Y I Y T T Y T F D D I U U T W E T W / ! ) ) ' W T Y Y T Y D V M n h h ",
"q 0 e i i k k k k k k k k b N v b c l c c b v v b v b N V H K K J K H V B B B B V m B B H B J J J J B B B N b b b b b c k k s j ",
"p p p s k m m h b g p d h M T ! ~ Q T T ! ~ ' ' ' ' ' { | | | { { ] ] [ [ ' ] ' ] [ ] ] ' [ ] ' ' ] ' ' ' ' ! ! Q ! ~ ! T T T Y ",
"q q q q w w f h h h n n C S U ! Q ~ ' ] [ {  . . . . . . . . .|  .} | | {  .{ { } { [ ] ' ' ] ] ' ' ' ' / T ! U I D Z Z Z C C C ",
"2 4 0 w y d d f h M C D F S D S C S S F G T ~ ~ ' ' ] ' ] ] ' ] ] ] [ ' ' ' ~ ' ~ ~ T G S Z D F U F D Z C M n C n n x M x x x h ",
"1 > 8 8 8 8 8 9 0 w s g h h h h x x C Z S F F G T G F G G G T T T T ! ! W W T ! ! W T F D F F T ! T F T Y T U U F U U U D C C n ",
"% # # % $ # # % = = - - 8 8 2 4 7 y d d f x x x M M M C C Z D D F U Y T T Q ~ ~ ' ] ] [ ] ] { {  . .|  . . . . . . . . .{ [ ~ ! ",
"% % % = - ; = ; ; 8 1 8 9 0 0 0 4 9 9 9 9 q 0 t p s s u t 0 0 0 0 t i s g n m I T ( _ _ ` ' _ _ ) ) ` ] _ _ ` _ ] ' ( _ ) _ ( W ",
"K A A K K I A K K A K D I Y E E E ^ Q E W E E E E E W E W ( ( ( ( ^ / / ( ) W ( ) W ( W E Y Y I D Z Z I Z Z A Z M b g k g f p p ",
"! ! W W ~ ~ ~ ~ ] ] ' ] ] [ [ { { | } | | } | } | }  . . . . . . .{ { | { ] ] ] ' ' ' ~ W T T T Y U U U F ! F Z C C h g d y d d ",
"~ ~ Q ~ ~ ~ ~ ' ~ ] ] ] ] { ] ] ] { { [ { ] { ] { { { | } } { { { [ { ] [ ' ~ T U F D Z Z Z Z Z Z M Z Z D D D D C M h d w w w w ",
"I D F T T T W W ~ ~ ' ] ] ] ] ' ~ ~ ' ] ] [ ] { { { { { { { [ ] [ [ [ { { [ ' ' W T U F D Z M C Z C Z C C C M n h h d w q 8 2 8 ",
"W W W W Q ' ' [ } { ] ] { ] ] ] ] ' ] ] ] ] ] { { { { { { { ] { | | | | | | | { [ ] ' ' ~ T U T T W / ! ! ! T D D Z h d 0 q q q ",
"D D Y T T T W W ~ T T Q W ~ ~ ~ ~ Q ~ Q Q Q Q ~ Q ~ ' ~ ~ Q Q ' ' ' ' ' ] ] ] ' ' ) ~ T T D D D Y T W T T U Z C Z Z h d q q q q ",
"k k k k b b N b m V V B B m m V B B V B V V V H K K K K H V V V H B B J J J V B B N N N b N b B B N m N N b b b k k g k k p t i ",
"d d d d f g M M S D D D F D F G T T T W Q Q ) [ ' [ ] ] { { { { } } } } } } { { } [ { { { { { { [ ] ] ' ' ' ' / ' ' / ! Y Y T Y ",
"p d d d d g h n M C Z D S D S S D D F G ! ~ ~ ] ] ] ] { } | | | | | { { ] [ [ { ] ] ] ] ] { { [ ] ] ' ~ ! ! ! U ! ! U ! U U F F ",
"p p g g k M n n n x f f g C F ! T T F F G ! ~ ~ ~ Q ~ ] } | { { [ [ [ ] ] ' ' ] ] { ] ] ] ] ] ] ] ' ' ~ ! ! U ! ! U ! ! U U F Z ",
"q q q q q t d g z z g z n S ! ~ ~ ~ ] ' ] { | |  .| |  .| |  .| | { [ { { { { { ] { ] ] ' ' ] ] ] ] ] ' ~ ! ! ! U ! F ! F D Z Z ",
"2 4 q w y d g h x C C D S F S S S D G ! ! ~ ] ] ] { } { } { { [ { { { { { ] ] ] ] ] ~ T F F T T F ! F S C C C C h n h h h h h h ",
"1 1 8 2 0 2 2 q t u z n M M x x x x M M Z I I F F D D D D F I I I Y T Y I I I U T F D Z M M C D D Z Z M M n n n M b n n x n g f ",
"i i p p k j k k c N B V H A A V B m V A A M V m m n N m m m m n n b g b b b b b b c c g s b b b b h g k k h N k k s p i t q 0 0 ",
"h n M Z Z D U T T Q ~ ~ ~ ] ~ ] ~ Q ! W ~ T T T T F F T T T ! ! T T Y T U U U F D D D F D F U U F Z D C C C M n x M n g d y q q ",
"n n h Z D U ! ' ~ ' ' ~ ~ ' { } ] ] ~ ~ ' ] ~ T T T T T W ~ ' ] [ ' ~ ! W ! ~ ! T T T T T W W W T T F D S C C C S Z C C x g d d ",
"n h n n C S F T T T T ! T ~ ~ ~ ! ~ ! ! ! ! ~ ! T T T U T ~ ~ ~ ~ ~ ~ ~ T T T T ! T U ! ! ! ! ~ ! W ! W T ! T T U D C x x f 7 7 ",
"M M x M C F T Q ~ ~ ~ ~ ~ ~ ! ~ ~ ' ] ' ~ ~ ] ] ] ] ' ' ' ] ' ' ] ] ] ~ ~ ~ ~ ~ ~ ' ~ ' ~ ~ ~ ' ' ! ~ ~ ~ ~ ~ T F D S M x z d 7 ",
"U I S S D G T Q ~ ' ' ' ] ] ~ [ [ { [ ] ] ' ' ' ' ' ] ' ] ] ] [ [ ] ] ~ ~ ~ ~ ~ ' ] ' ' ~ ' ' ' ' ' ] [ { ' ~ ~ ! G D S S x x x ",
"s k g k l l b v b B B B m B m V J V J J J K V K K K K R L P L L R Y K K K K L P E R R K J I J B m V V K K J V B n b b s p i 6 5 ",
"u s l z b b n m M V A I I Y E Q W / / W / / / ) ' ) _ ' _ _ ) _ _ ' ` ` [ ` _ ` [ _ ) ) / W T R D Z M M n n b z g u t q 4 4 4 1 ",
"V D F I T T Q T ~ ~ ~ ' ' ] ] ] ] ] [ ] [ { { [ ] [ ] ] ] [ { { } | | | | { ] { [ [ ' ~ ! ! ' ! ~ T C g p p u f s p p t t 4 2 2 ",
"b m D D F T T T T T T ~ Q ~ ] ] { [ ] ] [ ] ] ] ] ] [ ] { { { { { |  .| ] ~ W ! ~ ~ T F C C D Z D D C M g x x x n g g d y y t 5 ",
"M M D D I Y T T W W W Q ' ' ] { { { { { { [ { } { { { { { {  .} | | | { { { { { { ] ] ~ ! ! T D F D S S Z S C C n f y y w 7 5 4 ",
"m A A I Y W T Q ~ ~ ~ ] ] ] { ] [ { } | } { [ { [ [  . . . . .| | { ] ] [ ' ' ' ' / ! W T T W W I D F F G D D M M h d y 5 4 2 2 ",
"m A K K I Y Y T Q Q ) ) ] ] ' ) ) ' ' ' ' ] ' ] [ [ [ } [ [ [ [ ] [ [ [ ] ) Q T I Z Z C M M h m n n n m M M M m n f w 5 < > > > ",
"e r a j c c v v v N V B H B V B B H H H B H H H H J J J J J H H V H H H H H V V N N N N N k v k c v v v v v v c j j e e 1 : * & ",
"c v A K P E ( ( ) ) ) [ [ ` [ [ ] [ ] ] ' ' / ' _ [ ] [ } } ' ! W Q ] [ [ [ [ [ ] ] [ [ [ } } } [ [ } ` ] ] [ ) T Y V m z p 5 2 ",
"4 6 i l z b n M Z V D Y Y T Y I I U T T U U D D I U U U W ! ' ' ! ! ! ! ' ] [ ' ' ! ~ ! ~ ' ' ' ) ' W W Q Q Y Y D V x l 6 5 < * ",
"* * , < 5 t y u g n Z V D I D Z Z Z C Z Z C C M n n h n C Z D F F C M C V Z Z Z C C M M M M C C Z M M M S x x x z l u 5 < > + o ",
"* * , 6 i g m m V I Y T W ' ) ! ! T T ! ! ! T U U U U F T T T T T Y Y U U U I I F Z Z Z Z Z D I D M M M x z z l u y 6 4 , @ O o ",
", , , 4 i g m K V I Y E W ( ' ' ' / ! ! / ' ! ! T T T T ! ~ ' ' ' ' ! ! T ! ! T T T Y U Y T T T I D Z M z z z z l l 6 6 < @ + @ "
};
