/* XPM */
static char *be73d0a079fe4a36a1f3efd7de2e8eddX8XHtMJhG3nePbXR[] = {
/* columns rows colors chars-per-pixel */
"64 64 232 2 ",
"   c None",
".  c #050302",
"X  c #0C0504",
"o  c #0D0B0B",
"O  c #120605",
"+  c #160806",
"@  c #1A0906",
"#  c #130D0B",
"$  c #1D0C09",
"%  c #15110F",
"&  c #1B110E",
"*  c #141212",
"=  c #1A1513",
"-  c #1D1816",
";  c #1C1B1B",
":  c #18161A",
">  c #230D0A",
",  c #2B0F0A",
"<  c #230A07",
"1  c #390E07",
"2  c #24110D",
"3  c #2C110C",
"4  c #2B180C",
"5  c #33120C",
"6  c #3C140C",
"7  c #3B160A",
"8  c #231612",
"9  c #2B1612",
"0  c #241915",
"q  c #2B1B16",
"w  c #231D1C",
"e  c #2A1D1A",
"r  c #321611",
"t  c #341A15",
"y  c #3B1A14",
"u  c #3B1A16",
"i  c #2B211C",
"p  c #25221E",
"a  c #35231D",
"s  c #39241D",
"d  c #3B271A",
"f  c #231E22",
"g  c #242323",
"h  c #2B2524",
"j  c #29272A",
"k  c #2C2B2C",
"l  c #292728",
"z  c #332622",
"x  c #332926",
"c  c #3C2A23",
"v  c #342C2B",
"b  c #3C2D2B",
"n  c #382723",
"m  c #34312E",
"M  c #3B312D",
"N  c #2C2D32",
"B  c #262830",
"V  c #322F31",
"C  c #362D35",
"Z  c #343333",
"A  c #3B3432",
"S  c #363439",
"D  c #3B343A",
"F  c #3D3C3B",
"G  c #3B3836",
"H  c #2F3137",
"J  c #43150C",
"K  c #4B190D",
"L  c #48140A",
"P  c #56190B",
"I  c #4B1C13",
"U  c #421913",
"Y  c #49150E",
"T  c #791701",
"R  c #6E1B07",
"E  c #442519",
"W  c #592417",
"Q  c #53331D",
"!  c #69200E",
"~  c #632B1B",
"^  c #672718",
"/  c #762818",
"(  c #733015",
")  c #422D25",
"_  c #432C29",
"`  c #493126",
"'  c #44332D",
"]  c #4B332C",
"[  c #4F3D2F",
"{  c #573928",
"}  c #423433",
"|  c #4A3532",
" . c #4B3A33",
".. c #433C3B",
"X. c #4A3C3B",
"o. c #453739",
"O. c #543B33",
"+. c #573B36",
"@. c #5F2F21",
"#. c #662922",
"$. c #6C3222",
"%. c #773725",
"&. c #6C372D",
"*. c #45433F",
"=. c #4D423C",
"-. c #53433D",
";. c #5A4539",
":. c #684729",
">. c #624636",
",. c #6C5138",
"<. c #7E5033",
"1. c #3D3D43",
"2. c #443D44",
"3. c #493D44",
"4. c #583F40",
"5. c #444342",
"6. c #4C4442",
"7. c #45444B",
"8. c #4B454A",
"9. c #4C4C4A",
"0. c #4A4946",
"q. c #534343",
"w. c #544A43",
"e. c #544D4B",
"r. c #5D4D4B",
"t. c #5B4944",
"y. c #54514E",
"u. c #5C504A",
"i. c #5F5144",
"p. c #4C4B52",
"a. c #474652",
"s. c #554E53",
"d. c #4D5258",
"f. c #545353",
"g. c #5C5352",
"h. c #5E5A56",
"j. c #56565A",
"k. c #5B5A5A",
"l. c #5A5656",
"z. c #644B45",
"x. c #63534A",
"c. c #6A554B",
"v. c #765B49",
"b. c #625D5B",
"n. c #665957",
"m. c #725E53",
"M. c #63615C",
"N. c #6E655D",
"B. c #75645C",
"V. c #7A6558",
"C. c #7D6249",
"Z. c #5E5E62",
"A. c #4A5463",
"S. c #635E63",
"D. c #695C60",
"F. c #765F64",
"G. c #5D6169",
"H. c #5F6571",
"J. c #646364",
"K. c #6A6564",
"L. c #6D6966",
"P. c #6C6B6C",
"I. c #67676D",
"U. c #746A65",
"Y. c #726C6A",
"T. c #796A67",
"R. c #72716C",
"E. c #7B746D",
"W. c #676875",
"Q. c #747373",
"!. c #7B7573",
"~. c #7B7A7B",
"^. c #797776",
"/. c #706D76",
"(. c #8C3218",
"). c #863C28",
"_. c #9E3F27",
"`. c #A63D24",
"'. c #A8361A",
"]. c #8F4B2C",
"[. c #AE472F",
"{. c #D14C2A",
"}. c #8C5747",
"|. c #866958",
" X c #89715F",
".X c #9F7A5B",
"XX c #A57E5E",
"oX c #897368",
"OX c #827673",
"+X c #827C75",
"@X c #877979",
"#X c #947E72",
"$X c #8C7365",
"%X c #C25A42",
"&X c #88827C",
"*X c #99857C",
"=X c #A88976",
"-X c #7B7C80",
";X c #897E85",
":X c #7A8597",
">X c #7D808A",
",X c #848485",
"<X c #8B8483",
"1X c #8B8A8D",
"2X c #8A8787",
"3X c #938687",
"4X c #9D928C",
"5X c #8C8C92",
"6X c #888B98",
"7X c #939292",
"8X c #9C9594",
"9X c #95989D",
"0X c #978D94",
"qX c #A58F82",
"wX c #A4948C",
"eX c #A79389",
"rX c #B49C8E",
"tX c #A49B97",
"yX c #B19D91",
"uX c #A3A09D",
"iX c #BCA698",
"pX c #8E98AD",
"aX c #9EA1A7",
"sX c #A8A3A4",
"dX c #A2A9B5",
"fX c #B8B8BA",
"gX c #B8AEB2",
"hX c #CBBEBC",
"jX c #C8B5AA",
"kX c #C5A697",
"lX c #BDBEC2",
"zX c #D3D1D5",
/* pixels */
"                                                                                                                                ",
"                                                              _.).W Y Y %.                                                      ",
"                                                          #.%.W W P L Y P `.`.                                                  ",
"                                                              q.D.+.U #.#./ {.'.                                                ",
"                                                            -XpXlXhX3XF.  / `.%X[.                                              ",
"                                                          W.H.9XlXzXgX;XF.&.'.    [.                                            ",
"                                                        /.s.1.7.j.S.j.J.6XF.[.                                                  ",
"                                                          p.7.A.:XfXlXsX5XW.a.                                                  ",
"                                                        H.a.a.d.:XdX~.G.I.j.j.                                                  ",
"                                                    L.K.h.S B N p.~.5.f.l.e.f.s.b.oX@X<X<X,X                                    ",
"                                                    K.n.t.n.5.D k h p A t.c.|.#XeXwXwXtXtXtX3X;X&X3X                            ",
"                                                  OX@XU.*.A v z v =.c.|.|.$XOXU.n.y.V g h ..6.j ..5.2.K.                        ",
"                                            E.oXoXB...w w } X.X.e.n.u.;.A h * * A g.e v q.L.0Xn.g.T.f j                         ",
"                                        v.v.v.;.v w l f./.!.~.OXE.N.w.A ; * X h x.6.A ..@XT.U.n.e.;Xn.8.                        ",
"                                    W.K.B.z.' - f s.P.I.P.2X8X<X#Xm.z.o.: * p 6.n.' x.V.#X#X@X3X3Xn.o.l.                        ",
"                                    7.F j = o 9 o./.0X;X@XS.8.6.o.h - * o v  .C.#X3XyXiXkXjXhXhXsXg.e.S.                        ",
"                                    2.w o X o d d ..;XQ.Z.8.S m k G m M [ }.=X=XrXrXiXyXqXwXwX@X|._ s.p.                        ",
"                                  S.e.6.w.G : h { {  .h.Y.k.L.8X*X&XU.tXiX.XC. X X|.v.v.m.|.T.oX}.].3.3.                        ",
"                                r.r.*Xn.x.$XwXeX=XV.x.OXjXiXI./.1XyXE.;.*X&X:.:.,.,.;.;.-.z.}.oXz.  1.                          ",
"                              -.c.e ] c.oX#X*XqX=X XB.w.B. XY.G.d.M.U.;.=.:.,.<.].:.{ =.+.%.].}.                                ",
"                            b.b i M  .c C.;.s ) ` c i e b  .6.5.*.*.m M.i.=.:.Q :.Q x d #.%.%.                                  ",
"                          0XD.b q c.w.a ;.v % % = & 8 0 % * * % * o # p b & $ & 4 & 4 d #.                                      ",
"                        /.T.J.8.Z z y.g.x.M o * ; V x s a 0 h k A x # @ 0 0 & = p & & 4                                         ",
"                          r.=...m 0 9.P.B.x h * h X.v t 5 & M *.-.A @ 7 y 9 8 4 q i d `                                         ",
"                                  { u.T.m.2.f C a.8.2.8 , < , 5 d 7 , L > # 8 > @ = = 9                                         ",
"                                      !.W.1.w 3.a...S # . @ 1 5 , , , w : w 3.o.f 3.2.f }                                       ",
"                                      &XP.3.p.a.l # O @ X 1 P J J 1 P t x z X.4.3.} 3.3.3.                                      ",
"                                    @X*XF.C : O . $ , , O J P 1 P 7 T L _ ) ] | +._ _ o.3.s.                                    ",
"                                    ~.8X2.o + $ O 9 u o.q.{ P L ! J T R _ | n +.4.4.| o.X.3.s.                                  ",
"                    S ;           1.-X9Xk.V x 0 = 9 u b } W K L ^ J (.(.b 3.} o.3.4.4.v } D C                                   ",
"                                  :XdXlXQ.b u O + , 6 5 @ P J J ( Y / (.r 0 0 = 8 8 x D b v & f                                 ",
"                                  pXdXfXS.t $ . O @ > $ @ Y 1 , $.Y ^ [.6 % f z } z o.} 4.+.x                                   ",
"                                  pXaXsXu.U + . X + + + @ J 1 J %.L ! _.K & p c z.'  .t.+.] _                                   ",
"                                  6X9X3X| J O X + + O O @ J 1 I ).6 ! `.W & a c ] s q ) ] ] n                                   ",
"                                  6X9XL.u 5 O X + + + X + 6 1 P (.J ! ].W # 0 c ] ] q O.>.O.{ t.                                ",
"                                W.5X7XX.5 > O + @ + O O + 5 3 W %.6 P ).W % q 0 d O. .O.+.] &.-.                                ",
"                                I.1X7Xn < + @ < @ + O X O J , W ( 7 P <.W & i d d ` +.c ] O.` ] }                               ",
"                                I.7X1X= . X $ 2 3 > + O @ 5 @ I %.7 ^ $.K + % i c ) b i q ] O.O.o.                              ",
"                                L.uX!.X . @ , 3 3 2 > + @ 5 < E %.y ~ ~ J & % q n ) O.+.d O.` ) ] X.                            ",
"                                L.uXh.. . @ , 3 > > $ + @ 5 > I %.6 W ~ K & & a d h n O.d n ` _ ) x D                           ",
"                                U.uX*.. . > 5 5 9 3 2 $ + 5 , W $.t ~ W K 9 = z z z ) ) b e i ' M }                             ",
"                              y.U.2Xm *   t 7 y 6 7 5 2 $ 2 @ 8     ) 6 6 > e e e a c c s s )                                   ",
"                              y.E.&X      a 5 U U y y t t 9 # $       u 6 , > 0 9 9 t a u E {                                   ",
"                              y.E.^.      i < 3 y y r 4 9 $ $ $ e     ) r , > $ 9 s _ O.t.z.+.                                  ",
"                              h.!.          x w i 8 2 8 & & & 8         e 8 w ..y.n.K.~.,X~.K.g.                                ",
"                              J.&X        f.y.e.*.F m g % % p             k j f.K.R.Q.^.,X7X~.J.q.                              ",
"                            9.L.&X        f.f.y.5.0.5.Z p % ;               g F M.R.R.R.I.G.k.y.t.y.                            ",
"                            9.R.&X        1.*.F k g g ; ; * g F             k g m f.k.f.y.k.M.k.y.y.                            ",
"                            y.!.&X        k.f.F Z Z N : * ; g G               j B H.Q.R.L.>X1X,Xb.w.                            ",
"                            y.OX2X        J.M.*.F F k ; * - l                 N B G.R.P.G.I.J.G.f...6.                          ",
"                            h.+X          9.F m g g g o - p m                   B H d.h.h.J.P.Q.L.g.-.                          ",
"                          w.M.E.          0.*.F Z Z G : - p m                     l Z M.L.Q.Q.R.J.b.w.                          ",
"                          9.N.E.          *.1.m g p * ; ; k                       Z k f.M.k.k.j.y.0.w.                          ",
"                          y.R.&X          9.*.F G Z ; ; p G                         m N j.P.Q.,XQ.M.9.                          ",
"                          h.E.            0.F m l l ; * k                             l j.,X2X~.Q.J.y.                          ",
"                          h.+X          F G F *.F Z g * h G                           N 0.I.J.^.7X,Xn.w.                        ",
"                          M.+X          8.1.Z k k A g : g G                           k k *.0.f.R.^.M.w.                        ",
"                          M.&X      f j Z 1.0.0.1.p ; h Z                             Z N j.J.G.j.j.f.l.                        ",
"                          P.    v x e 0 0 w N F g & & 0 x                             S g F Z.Q.,X7X1XY.                        ",
"                        /.R.9.1.Z l e 0 0 8 8 0 0 0 0 q d                             v - 8 0 i Z 0.M.x.                        ",
"                      ; p.L.9.l.8.D h = & # + # # # & 8                               D o.=.-.O.E d E {                         ",
"                        A *.                                                      7.a.S.,X5X1X2XN.{ Q Q                         ",
"                                                                                  k l v 0.Y.<X8X&X>.                            ",
"                                                                                                                                "
};
