/* XPM */
static char *f600f3f61f654f9cc01e57b00ae796d103maFkxSuHGrCrOZ[] = {
/* columns rows colors chars-per-pixel */
"64 64 237 2 ",
"   c None",
".  c #0B1403",
"X  c #0E1804",
"o  c #161B0A",
"O  c #1C1B0D",
"+  c #141A08",
"@  c #1E1C12",
"#  c #251A0D",
"$  c #231D13",
"%  c #2B1F10",
"&  c #1C230C",
"*  c #1C280A",
"=  c #1F2214",
"-  c #21270F",
";  c #25330E",
":  c #2A380F",
">  c #232215",
",  c #2C2315",
"<  c #242B12",
"1  c #252419",
"2  c #2B261B",
"3  c #2C2A1D",
"4  c #292B17",
"5  c #322514",
"6  c #332B1C",
"7  c #3C2D1A",
"8  c #3A2915",
"9  c #2B3514",
"0  c #2D3B13",
"q  c #2C3319",
"w  c #33341C",
"e  c #3C321E",
"r  c #343D1A",
"t  c #333A18",
"y  c #2D2C22",
"u  c #312D22",
"i  c #2F3025",
"p  c #333225",
"a  c #3C3424",
"s  c #34342A",
"d  c #39362B",
"f  c #37382E",
"g  c #3B3A2D",
"h  c #383925",
"j  c #3C3C32",
"k  c #373937",
"l  c #422E19",
"z  c #44331C",
"x  c #4C341C",
"c  c #4E381F",
"v  c #58391D",
"b  c #423623",
"n  c #463925",
"m  c #4C3C25",
"M  c #443C2B",
"N  c #4A3E2B",
"B  c #533D22",
"V  c #5A3E22",
"C  c #503E29",
"Z  c #413F32",
"A  c #653F20",
"S  c #334415",
"D  c #3C4C1B",
"F  c #384719",
"G  c #3D521B",
"H  c #3A5116",
"J  c #2C4013",
"K  c #3F4036",
"L  c #384028",
"P  c #41521D",
"I  c #43591B",
"U  c #414D1E",
"Y  c #4D422D",
"T  c #484728",
"R  c #53442C",
"E  c #5B452A",
"W  c #5D4A2E",
"Q  c #564227",
"!  c #495625",
"~  c #5A562C",
"^  c #434235",
"/  c #4B4434",
"(  c #44443A",
")  c #484739",
"_  c #4C4A3D",
"`  c #4C4837",
"'  c #534533",
"]  c #554934",
"[  c #5C4B34",
"{  c #534D3B",
"}  c #5D4C39",
"|  c #5B4731",
" . c #56523D",
".. c #5C523B",
"X. c #585835",
"o. c #4E5630",
"O. c #614325",
"+. c #6B4524",
"@. c #644A2C",
"#. c #66492B",
"$. c #754926",
"%. c #7C4C26",
"&. c #734A28",
"*. c #6D522E",
"=. c #74512D",
"-. c #634D32",
";. c #614F3B",
":. c #694F32",
">. c #635235",
",. c #6B5334",
"<. c #64533C",
"1. c #6A553B",
"2. c #6A5B3C",
"3. c #725433",
"4. c #7E5A33",
"5. c #725A3B",
"6. c #775834",
"7. c #5A6434",
"8. c #566F26",
"9. c #686736",
"0. c #7A653D",
"q. c #67733C",
"w. c #4D4D41",
"e. c #464A48",
"r. c #514F41",
"t. c #545244",
"y. c #5B5643",
"u. c #5C5944",
"i. c #555549",
"p. c #585749",
"a. c #5D5A4A",
"s. c #575840",
"d. c #50534D",
"f. c #695640",
"g. c #635B45",
"h. c #6D5B43",
"j. c #625D4B",
"k. c #655944",
"l. c #735E43",
"z. c #7A5F40",
"x. c #625F51",
"c. c #65614D",
"v. c #6B634C",
"b. c #6B6647",
"n. c #746243",
"m. c #7C6443",
"M. c #74654B",
"N. c #74694D",
"B. c #7B6B4D",
"V. c #796846",
"C. c #656252",
"Z. c #6B6653",
"A. c #6D6954",
"S. c #6D6B5A",
"D. c #736C54",
"F. c #7A6D53",
"G. c #746E5A",
"H. c #7B7256",
"J. c #75715C",
"K. c #7B745B",
"L. c #787756",
"P. c #73764D",
"I. c #7B7662",
"U. c #7D7863",
"Y. c #787666",
"T. c #737672",
"R. c #84522B",
"E. c #8A562D",
"W. c #8E592F",
"Q. c #82582F",
"!. c #955B2E",
"~. c #92582D",
"^. c #865D33",
"/. c #975E31",
"(. c #804F29",
"). c #82623A",
"_. c #8B673B",
"`. c #986738",
"'. c #80713E",
"]. c #A56534",
"[. c #846C44",
"{. c #886B45",
"}. c #956D40",
"|. c #85714A",
" X c #887848",
".X c #987848",
"XX c #847354",
"oX c #82755B",
"OX c #847A5E",
"+X c #8A7B5E",
"@X c #8B7B54",
"#X c #967C54",
"$X c #A47A46",
"%X c #837C64",
"&X c #897E62",
"*X c #847F69",
"=X c #718243",
"-X c #958153",
";X c #9C8558",
":X c #938248",
">X c #A88A56",
",X c #B69457",
"<X c #A2854F",
"1X c #8B8165",
"2X c #8B846B",
"3X c #888269",
"4X c #918364",
"5X c #928669",
"6X c #948A6C",
"7X c #9A8D6E",
"8X c #988B66",
"9X c #8E8972",
"0X c #8C8672",
"qX c #948C72",
"wX c #998F72",
"eX c #9C9275",
"rX c #9D957A",
"tX c #969077",
"yX c #9D956F",
"uX c #A28D69",
"iX c #A29574",
"pX c #A49A7C",
"aX c #AB9D7C",
"sX c #A39878",
"dX c #ACA07F",
"fX c #B2A17D",
"gX c #93928D",
"hX c #A49D82",
"jX c #A99F81",
"kX c #ACA283",
"lX c #ADA68A",
"zX c #B1A583",
"xX c #B9AD8B",
"cX c #B4A988",
"vX c #BCB08E",
"bX c #B9B194",
"nX c #C4B997",
/* pixels */
"                                                                                                                                ",
"                                                                  n {                                                           ",
"                                                            a a M ' f.D.                                                        ",
"                                          E Q             R ' ' } ;.f.F.                                                        ",
"                                      1.C z B @.1.        v.XX} f.l.l.M.n.x v c n                                               ",
"                                  [ x @.8 5 m #.4.Q 1.} } eX7Xh.l.l.f.f.b 8 A +.V m e                                           ",
"                                3.b C n.z % z @.5.-.#.[ 8XaXcX#Xf.Z Z Z u 8 (.$.#.B c B z e         /.(.                        ",
"                                _.l W @.7 ] <.Q ,.n l V pXnXnXaXZ Z t.) u % (.@.R V $.+.B c c m n E 3.#.                        ",
"                                  8 *.O.z -.E 5 O.5 5 z ' &XzXfXr.Z Z u # # A #.#.$.R.+.O.V V V v | D.`                         ",
"                                  7 B z 7 *.B , z % #   M M b <.b u d d # 5 $.E.(.~.E.+.:.' A +.V ,.6Xj.                        ",
"                                  } / 2 8 V 7 # $ y u M M u u s u Z ( Z $ A W.R.R./.E.Q.*.V +.%.+.V B.;.6                       ",
"                                  B.oXG.A.n $ y e.e.u $ 2 a C x.f.Z Z Z l E.~.R.!.!.W././.$.E.~.A v R.$.V 8                     ",
"                                  XX+XzXbXM.d M d.d.y 1 1 N y.l.M.Z s % A ^.R.!.!.~.~.!.R.R.!./.v b m n a 8                     ",
"                                  &X+XiXxXXXN d e.e.i $ $ d C f.f.u u # =.z.3.E.~.~.].!.R.!.R.(.l C k./ g m 5.                  ",
"                                  k.{ ' iXoXC k e.e.d 1 $ s b ' C u 2 # E.}.}.^.).^.`.E.].`.%.x 5 N XXN.1.>.' Y                 ",
"                              M M d N C &X&Xt.( k k i $ 1 u N ' % 1 y @ @.}.}._.$X.X6.4.]./.(.x % l <.;.M M ' } >.              ",
"                              C / M ' ' } B.{ d k s 1 $ $ y 1 u $ y i @ N M.m._.$X$X}.).).#.V l 5 7 ' M Z f.f.r.;.        V     ",
"                            E 3.;.' C } } C a u u $ $ @ y y $ u Z d y l ^.| a <.XX}.}._.$XB.N u 7 } h.' N f.f.N } -.    Q.+.    ",
"                            M.l.h.} ' ;.f.| 5 # @ y 2 $ y j j g k s 8 E.^.u # % u ;.{.{.#XuX3.b C h.l.[ ' f.;.C ' | }   E.&.    ",
"                          D.2X*XoXf.;.;.f.f.a u j ` f j k j k k f s s -.a y b A x % 6 C B.#X~.V f.l.h.} } ' } } ;.f.| 3.R.%.$.  ",
"                          l.A.y.7XB.f.f.;.;.C r._ t.g j g f f f k s / OXM s N 5.A A V a n #X}.z.h.l.f.;.;.} ;.f.l.f.' @.E.E.$.  ",
"                          h.l.n XXoXf.C b y d t.^ _ g R ' ^ j g j s } iXN s j.wXM.h.1.A #.M.M.h.l.l.f.:.f.f.f.<.| b 5 V W.E.&.:.",
"                          iX4X{ -.-.b y u j Z p.^ _ _ n.2.-.' ^ g f r.7XZ s l.zX7XwXhXh.1.&Xj.C ;.l.l.l.;.1.C b , 5 5 5 8 u Z   ",
"                          xXXX..F.h.d i d Z Z p._ / V.XX@Xn.n.,.M p 3 } a 5 y.fXjXx.*X&X&XnX5X' 7 n @.,.n 7 u 7 2 5 % Z Z y k   ",
"                          nXM.N sXsXZ $ g { ( t._ 2.-X-X;X|.-X|.R s 1 R x Q 4.^.#Xj.x.&XfXxXrXf.#.:.m l 5 6 6 2 $ $ @ w.F.k.k   ",
"                          hXT.N 7XbX{ $ j y.( w.t.B.-X;X;X-X;XV.| | a E z O.).3.^.} x.&XkXrXr.n V #.3.E 5 2 % $ 1 y y i k.K.r.  ",
"                          Y.gXa.C.iXy.d K t.K _ _ %X5XH.-X;X-XV.>.>.M E 4.).&.=.V M x.H.B.XXZ } ..] W B > $ y y y s s y j a.w.  ",
"                          j.S.i.i.F.K.0XU.J.s 3 3 1XdX6X1XH.@X0.' g g E Q.4.c O.8 / A.c.F.K.D.5XD.F.A.N 1 y j ^ g p s s j j ^   ",
"                        w.w.d.t.r.p.D.tXqXtXY.{ M pXbXcXeXiXtX` g Z d [ U.h.l b 6 b d ) A.qXqXeXF.oXwXv.h g _ w.Z i f s p f j   ",
"                      A.S.a.i.i.s d A.wXeXtXrX9XhXqXnXbXkXwXdX_ 2 Z d 1.gXI.a n b , 2 { ] G.qXpXoXoXpXU.( ^ w.w.( j j f j i y   ",
"                      6X9XC.s j 2 1 Z N.5XrXsXtXhX9X6XrXcXdXcXt.$ j j 5.gXoXO.:.m 8 y / / v.tXlX3XC.N.D.^ j ( w.w.Z j s s y i   ",
"                      N.&Xy.2 $ O 1 ` K.S.U.5XyXkXJ.S.6X6XwXrXr.@ f   ^.*XXX*.,.z 2 3 g u.K.9XS.r.j  .N.j ^ e._ e.( j u k f f   ",
"                      M p y O @ u p ) 5XU.Y.A.K.1X3Xa.x.A.U.OXt.w.k   5.4X|.*.3.l 1 u g i.x.i.e.K s  .D.s f w.w.( K f f ( f f   ",
"                  S.y.b a 3 3 f 3 = L 1X9XrXc.1XU.qXtXZ.C.a.a.t.%X&X*XN.m m b l , s j j j ( ( ^ ( K _ A.q h ( ) _ K i g ^ f s   ",
"              G.p.{ >.m.,.a 4 = + ; q  .H.tXb.eX5X5X%Xp ( 1XA. .%X2X0XK.n.[ b N Z j s s j e._ ( ) ) _ v.f f K ( ) s y s f 3 1   ",
"          2Xu...m.#X7XoX3 4 J J J F 0 q y.M ` eXrXwXZ.( g L.6XL.2X0X3XJ.rX4XK.G.r.k i j w.t._ r._ ) _ A.g L ( K K f K i 1 @ <   ",
"        0Xt.[ ).uXdX_ K y = ; J G S J J S  .y.9X6XyXL.C.f D.5Xb.G.*X9XI.U.J.%XS.^ p i _ _ w.w.( w.) K s.h s f K K g f 1 + &     ",
"  3X*XG.( >.[.Y wXOXj j < : : J F F G D ; T 3XqX9X1XD.C.s v.qXD.oX&X%Xj.t.r.i.( g u j w.^ w.r.w.w.K K a.h w s f K p i > + &     ",
"rXJ.3XB.,._.n y wXa.j f ; H D 0 G F ; J * * ..U.K.c.A.C.f p.lXOXK.rXrX&X*Xk.Z Z Z s ^ w.) y.i.w.K i h a.p q i y < & & & < e     ",
"lXqXqXuX}.@.y h 1X^ f L G ! G D ! G J 0 * < L v.v.k.k.p.j { kX%X%XlXjXqXpX5X%Xt.Z f ^ ( w.i.i.w.s 1 w  .r 4 4 & & * ; T 9.9.    ",
"nXhXqXjX8X<.f Z C.s y S H G F t t L T ~ >.Y ..m. XV..._ j _ c._ K.tXpX;XaXJ.1Xv.g j ^ j K w.w.j y > 9  .w - 0 0 :               ",
"  S.*XlXpX}.^ { ) y < S G G r t 0 e V.B.|.V.V.[.-X Xn._ ^ { c.7.o.X.#X#XG.g v.c.M p f f ^ w.j y > ; S U F J T                   ",
"  k.r.bXlX>X1.t.f y * ; D L 9 0 r W [. X;X-X-X;X;X#X@Xh.h.b.7.G F 3.>X*X^ f w.y.g f k Z j p = + + S P                           ",
"  F.y.jXlXeX+X_ i = o * 9 F r w < x ,.V.0.9.0.>.,.E ,.[.{.V.8.D @.|.*Xr.j p ^ a.g p y 2 1 = X . * :                             ",
"  %XD.7XlXhX0X9Xp.y o J P F t t 9 < 4 W T W ,.m ..| ,.5.b.v.L.P. X2X) ^ K f g  .p 1 1 $ o . . X ;                               ",
"  &XoXwXwXhXhXhXrXY.b.=X8.P q * w ..] N.b.N.D.A.v.A.{ h w.N.%X2X6Xj.j K ) g u w 1 1 @ + X . o 9 H                               ",
"  wX%X7XsXwXrXbXlXqX%XU.P.P.g.s.7.H.F.%X1XK.K.A.g.y.t.w.G.%XA.p.a.^ j K ) L h 3 w 0 . . . o ; U                                 ",
"  eX2X7XzXqX2X0XlXhXtXqXA.v.+XwX5X4XD.C.v.s...t. .g Z _ K.qXS.w.( ^ g ( K y & ; P S * ; 9 S                                     ",
"  sX&XrXtX9XeXC.D.%X&XrXtX6X4XK.i.S.c.g h h h g g s p j g.U.S._ g ) ( Z p > o :       P                                         ",
"  3XG.eXeX3XzX%XD.6X5X2XlXgX3Xa.) Z.Z._ g Z _ ( ^ w.j @ Z U.T.) Z w.) ^ 3 - & :                                                 ",
"  qXZ.1X6XJ.pX6XK.zXxXkXqX2XI.a.f u y.c.) c.n. .p.x.i.p j.rXU._ ( _ _ s > * O 0                                                 ",
"  5Xc.+X3XU.dXc.D.jXcXkX&XG.j./ p j Z.a.{ |..X] i.Z.C.p D.pXA.) j Z g 2 > - - t                                                 ",
"  oXc.&X2X9XxXsX6XrXrXrX7X7X&X..p ( I.A.<.,X,X>.r.a.r.a 2XzX1Xw.j j 3 3 w > - F                                                 ",
"  D.c.+X%XK.cXxXeXS.3XqXiXaX5Xu.g j t.^  .>X,Xn.r._ g u %XcX3X/ p 3 2 w w w t P                                                 ",
"  y.u.  Z.c.pXxXrXy.U.6XsXkX6Xj.j g a p  ..X.X<.a.) Z u D.wXb.g y > > w T  X9.                                                  ",
"  b.    c...6XrXqXa.+X2XiXkX6Xj.h p h ^  .M d h S.u.u.g A.1Xp.g p 1 , 6 ~ >X:X                                                  ",
"              q.L.w.D.K.zXsX&Xs.h u ` N.{ y y s G.K.F.g L.OX] p 3 3 6 6 w 0.:X                                                  ",
"                q.7.q.b.kXwXH.{ h 1  .D.t.y 3 p S.b...w b.2.h 2 4 w w e R  X                                                    ",
"                  8.8.7.6X2Xv.Y 2 @ ..b.] y y p c...R t ~ Y q , e e R 0.<X                                                      ",
"                    ! G b.D._ 6 = & 2.] M b ] [ V.0.9.9.0.0.>.2.[.<X,X                                                          ",
"                      D ! b.o.M w ~ [.9.0.).5.5.).{.0.<X,X>X,X                                                                  ",
"                                        #X.X0.0.m._._.                                                                          ",
"                                          ,X_.>.W E >.                                                                          ",
"                                            |.m m T Y                                                                           "
};
