/* XPM */
static char *c4d46128ee794af1e53b4f64280e07feo53v0Pya0UcrrlLd[] = {
/* columns rows colors chars-per-pixel */
"64 64 232 2 ",
"   c None",
".  c #050404",
"X  c #080705",
"o  c #0A0906",
"O  c #0D0C09",
"+  c #070807",
"@  c #120C07",
"#  c #120F0B",
"$  c #1D0E09",
"%  c #14120D",
"&  c #1A140D",
"*  c #1F180F",
"=  c #151411",
"-  c #1B1611",
";  c #1D1A13",
":  c #1C1C1A",
">  c #161815",
",  c #260D06",
"<  c #25120C",
"1  c #2B130B",
"2  c #271A0E",
"3  c #36150B",
"4  c #231C14",
"5  c #231E19",
"6  c #281B14",
"7  c #371D13",
"8  c #29200E",
"9  c #2C2315",
"0  c #2B241A",
"q  c #28241B",
"w  c #332315",
"e  c #342B1C",
"r  c #3A2E1D",
"t  c #392618",
"y  c #3A2E15",
"u  c #2C2A24",
"i  c #2A2D2A",
"p  c #262421",
"a  c #322D24",
"s  c #372F26",
"d  c #3D3223",
"f  c #35322C",
"g  c #3C392C",
"h  c #3B362A",
"j  c #2E3735",
"k  c #393933",
"l  c #4A1609",
"z  c #41190C",
"x  c #4C1B0C",
"c  c #45160A",
"v  c #521E0D",
"b  c #471E11",
"n  c #57210E",
"m  c #4B291A",
"M  c #412E14",
"N  c #443415",
"B  c #4B3C1D",
"V  c #473616",
"C  c #5C2B15",
"Z  c #73371B",
"A  c #423524",
"S  c #443926",
"D  c #4C3D24",
"F  c #4C3C29",
"G  c #44382B",
"H  c #433F32",
"J  c #533E30",
"K  c #4A3526",
"L  c #3B4237",
"P  c #4C421C",
"I  c #5B4619",
"U  c #6D541B",
"Y  c #7A5919",
"T  c #4E412A",
"R  c #4F4227",
"E  c #544423",
"W  c #53442A",
"Q  c #584929",
"!  c #5E542C",
"~  c #4D4432",
"^  c #45453B",
"/  c #46473B",
"(  c #5C4B33",
")  c #554737",
"_  c #5B5537",
"`  c #4E523D",
"'  c #6C592F",
"]  c #685629",
"[  c #745B29",
"{  c #654C35",
"}  c #655432",
"|  c #6B5534",
" . c #695B3B",
".. c #645839",
"X. c #745D3A",
"o. c #765A35",
"O. c #7E4C30",
"+. c #7B652B",
"@. c #7B623B",
"#. c #796636",
"$. c #766C3E",
"%. c #4B4B43",
"&. c #4F4F4A",
"*. c #545544",
"=. c #5C554A",
"-. c #5B5C4A",
";. c #595948",
":. c #555D56",
">. c #4D5448",
",. c #645943",
"<. c #615640",
"1. c #5F6344",
"2. c #67644A",
"3. c #7D6B44",
"4. c #7A6C4A",
"5. c #756547",
"6. c #686656",
"7. c #766E58",
"8. c #77745B",
"9. c #7C714D",
"0. c #525B63",
"q. c #58666F",
"w. c #636A66",
"e. c #7D7D6B",
"r. c #757767",
"t. c #697173",
"y. c #883E1B",
"u. c #B0360E",
"i. c #CC3912",
"p. c #BE4E1B",
"a. c #8B6B1D",
"s. c #93751F",
"d. c #A87F19",
"f. c #9E542E",
"g. c #8B4C22",
"h. c #B6552C",
"j. c #846B27",
"k. c #8D7226",
"l. c #876A3B",
"z. c #8C7B3B",
"x. c #88743A",
"c. c #987D2C",
"v. c #A26D34",
"b. c #D24D22",
"n. c #EC5C26",
"m. c #846B43",
"M. c #836740",
"N. c #906E42",
"B. c #82734D",
"V. c #8A7544",
"C. c #947443",
"Z. c #927C4B",
"A. c #9D7D4D",
"S. c #967B42",
"D. c #836D51",
"F. c #8D7951",
"G. c #877858",
"H. c #937952",
"J. c #A27E4C",
"K. c #837E65",
"L. c #867D66",
"P. c #9B7F62",
"I. c #7F847C",
"U. c #998338",
"Y. c #98812E",
"T. c #A6862B",
"R. c #A18639",
"E. c #AD9239",
"W. c #9B854A",
"Q. c #9D8A51",
"!. c #978658",
"~. c #828159",
"^. c #A5864B",
"/. c #A18A54",
"(. c #A28C5E",
"). c #B38B52",
"_. c #AB9859",
"`. c #B89855",
"'. c #BAA353",
"]. c #878165",
"[. c #83826C",
"{. c #89826B",
"}. c #8F8869",
"|. c #938B6D",
" X c #978967",
".X c #848372",
"XX c #8A8977",
"oX c #97957A",
"OX c #989174",
"+X c #A18E68",
"@X c #A4936C",
"#X c #A79869",
"$X c #B39B65",
"%X c #A29674",
"&X c #A99878",
"*X c #B6A465",
"=X c #A9A37A",
"-X c #B2A175",
";X c #B6AA79",
":X c #B8B27B",
">X c #C49959",
",X c #CDAA5D",
"<X c #C19D60",
"1X c #C3A469",
"2X c #CEAF72",
"3X c #C8B378",
"4X c #D3B371",
"5X c #D8C07D",
"6X c #9A9885",
"7X c #9C9E91",
"8X c #A19B84",
"9X c #A2A28B",
"0X c #AAA387",
"qX c #B7AA87",
"wX c #BBB189",
"eX c #AAA893",
"rX c #B5B49E",
"tX c #B6B4A1",
"yX c #C5B588",
"uX c #C6B69A",
"iX c #DCBC91",
"pX c #DBCB97",
"aX c #CDC295",
"sX c #E1C49B",
"dX c #CDC3A6",
"fX c #D6C5A9",
"gX c #E8CCA3",
"hX c #ECD9BC",
"jX c #F7DEBB",
"kX c #F4D4A8",
"lX c #FFE0B3",
"zX c #FCE6C6",
/* pixels */
"                                                                                                                                ",
"                                                          K.                                                                    ",
"                                                          r.{.eX              tXtX                                              ",
"                                                          w.2.XX9XXX-X7XwXoXeXeX8X                                              ",
"                                                          :.:.4.}.8. X7XwX0X6XoX                                                ",
"                                                          &.L ;.4. ./.pX;XL.L.XX                                                ",
"                                                          :.i ^ 6.5.!.uX-XL.e.6.                                                ",
"                                                          ,.,.7.;.9.!.8X%XL.7.L.                                                ",
"                                                          5.5.@XF.B.!.wX@XP.%X                                                  ",
"                                                          4.] L.!.3.F.(.+X@X+X                                                  ",
"                                            K.            B.g.4.m.4.5. XL.H.G.                                                  ",
"                                                  2.      D.y.o. .@. .8.L.G.5.                                                  ",
"                                                      r.L.X.Z C d W ~ <.,.J J     {.                                            ",
"                                                        f.g.g.{ ( #.m.@XA.D m G =.=.&.                                          ",
"                                                      D.f.p.u.h.H.<.%XgXhXuXOXe.e.[.oXoX.X                                      ",
"                                              G 9 & ; q { v.p.n.b.Z P.sXjXhXfXdXdXrXrX7X6XXX.X                                  ",
"                                            6.4 # = > = O r [ g.i.y.M Q 5.,.0XzXjXkXuXXXI..X6.G.                                ",
"                                            =.: j i j L a o h g n z 0 w t T uXzXlXjXsX6./ ^ u ;.                                ",
"                                            H j :./ ^ ..} q ; g H / 2.w.L.|.-XgXkXiX_ ~ ].` = )                                 ",
"                                              =.Q.B.>.,.' ` 6.7.I.oXoXXX9X7X|.$Xm.N O % G G = ~                                 ",
"                                              ].Q.#.B.Z...8.I.I.[.oX].7.-.` A A = # 4 - = ; :                                   ",
"                                              7X!.+.x.z.R ;.2.2.*./ j q % % % = # = ; 5 % &                                     ",
"                                                [.W Q #.y u L u > # O % - 4 : : > e ;                                           ",
"                                                  -.f R 9 + O O O = & * 9 5 e i q ~                                             ",
"                                                    k p 9 O o O & 4 % - 4 a u : a =.                                            ",
"                                                    q.i ; ; 4 * < 2 3 z 3 7 t 4 S 8.                                            ",
"                                                    q.-.Q P & < 1 3 c l x 7 7 6 ' (.                                            ",
"                                                    w.~.2.E % 8 w w w t M m m 7 V.wX                                            ",
"                                                  0.I.>.1.y 2 x v n x x v v x 3 4.eX                                            ",
"                                                  e.oX>.' & , 1 < < 2 1 1 3 3 $ } wX                                            ",
"                                                  oX(.z.P @ $ 3 z z l c 3 l z $ w 1XwX                                          ",
"                                                6X=X$.z.9 O & 1 , 1 < , $ & - = O X.0X                                          ",
"                                                XXI.` +.& 4 e * @ ; 4 9 % y W g O w #X=X                                        ",
"                                              I.=X>.1.I 9 E y - ; 6 4 4 0 d B [ Q % ' 4X;X                                      ",
"                                              ].:X1.W.y B B 8 ; ; 9 - % A ( W N [ E 2 ^.qX6X                                    ",
"                                            2.'.'.E.k.B B A 0 * # & & # e X.) Q Q x.E D |.6X                                    ",
"                                          |.~.'.$.E.U R A S 6 % % % % O % T } o.@.| x.] } %X&X                                  ",
"                                        I.9.'.I.>.R.I 9 F d & O O O O O @ * T } J.N.o.z.W x.yX#X                                ",
"                                        |.Q.;X>.1.+.y y F 0 % O O o O o O % 4 ( J.<XC.A.(.} 3X2X$X                              ",
"                                      #X$.*X_.L 1.Y 9 h r * O o o o + o O & & 0 X.<X2XA.$XX.^.yX_.;X                            ",
"                                    %X3.W.,XY._ x.I w S 9 % o + X . . . . % e ; r l.2X1XJ.M.C.3X*X/.yX                          ",
"                                  eXG.] _.E.j.T.a.V d e 4 O X . . . . . . O r D 0 R /.4X).v.l.e.-XZ._.pX                        ",
"                                  OX#.x.'.T.a.T.[ N u 8 & X @ o . . . . X O ; ! F d | ).2X).o.3.+X/.W.$X                        ",
"                                &X3.[ W.E.a.#.R.I 0 - * O X @ @ . . . @ % @ o e ( ~ F l.>X,Xl.' !.^.Z.V.$X                      ",
"                                W.! +.U.+.L ! k.y * % % o # & O . . @ & @ @ o % d ( | | N.>X>X{ +.`.W.W.x.$X                    ",
"                              e.! ] U.z.L T _ U 8 % % O # # O + . . O & % @ o @ : W X.X.C.^.).M.q P $.B.B.F.qX                  ",
"                            G. .5.W.Y.Y.L L ! N % % @ % @ + . . . . . O @ o o X % 0 } | 5.l.M.| e . X 4 9 r G.%X                ",
"                              P j.W.s.s.! ! Y y % O # % % O + + . . . + X o o X X % e N t A K A 9 O X . . O F D.                ",
"                              p 0 P U Y s.d.Y d - - = = O = O O + + + X O X X + X X - d A 0 6 e e 9 4 & = u f                   ",
"                              : O # # 8 P a.Y     a u a u e p : : = # O O O X X X + + # 4 0 0 0 9 ; % ;                         ",
"                              = + + O :                           k k f a f i p > - # O O O O O O # = :                         ",
"                            k O + + >                                                     # # # # & -                           ",
"                            u O + O :                                                     = O = # % ;                           ",
"                          f ; O O O #                                                     # O # # - ;                           ",
"                      %.u 5 4 % # - #                                                     = # # # # 5                           ",
"                    %.f p 5 5 ; -                                                           O # # & :                           ",
"                      4 - -                                                                 O # = ; 6                           ",
"                                                                                            O # 6 A J K                         ",
"                                                                                            O ; K J { <.)                       ",
"                                                                                              : G J ( ( F G                     ",
"                                                                                              = : p m G d t                     ",
"                                                                                                # - < 6 6                       ",
"                                                                                                                                ",
"                                                                                                                                "
};
