/* XPM */
static char *be2e9241868342329f52b56092e4c673bFHy3jSjq0UM5yr9[] = {
/* columns rows colors chars-per-pixel */
"64 64 182 2 ",
"   c #0C0A07",
".  c #0E0C09",
"X  c #120E0B",
"o  c #15120E",
"O  c #1B140D",
"+  c #171311",
"@  c #1B1611",
"#  c #1E1914",
"$  c #1E1C19",
"%  c #20170E",
"&  c #21180F",
"*  c #201710",
"=  c #231B14",
"-  c #291E15",
";  c #231E19",
":  c #281F18",
">  c #2D2116",
",  c #26211B",
"<  c #2B231C",
"1  c #322315",
"2  c #382717",
"3  c #3A2817",
"4  c #32261B",
"5  c #35291E",
"6  c #3B2C1D",
"7  c #272421",
"8  c #2C2621",
"9  c #2E2923",
"0  c #2E2C29",
"q  c #342B23",
"w  c #3A2E22",
"e  c #332E28",
"r  c #382F28",
"t  c #3D3125",
"y  c #36312C",
"u  c #3B332B",
"i  c #373430",
"p  c #3C3631",
"a  c #3D3934",
"s  c #412F1D",
"d  c #43311E",
"f  c #4A351E",
"g  c #433424",
"h  c #493622",
"j  c #4C3A25",
"k  c #42362A",
"l  c #45392D",
"z  c #4B3C2C",
"x  c #523D26",
"c  c #513E2B",
"v  c #433B33",
"b  c #4A3E32",
"n  c #433E39",
"m  c #5B4227",
"M  c #54412D",
"N  c #5B442D",
"B  c #4C4135",
"V  c #46413B",
"C  c #4C443B",
"Z  c #534434",
"A  c #594632",
"S  c #5B4935",
"D  c #52463A",
"F  c #54493D",
"G  c #5B4C3C",
"H  c #61482E",
"J  c #624C34",
"K  c #614F3A",
"L  c #6C5237",
"P  c #64513D",
"I  c #6A543C",
"U  c #72593D",
"Y  c #474441",
"T  c #4C4641",
"R  c #4E4943",
"E  c #544C43",
"W  c #5A4E42",
"Q  c #524E49",
"!  c #575047",
"~  c #5C5145",
"^  c #56514B",
"/  c #5C544B",
"(  c #555450",
")  c #5C5650",
"_  c #5E5952",
"`  c #5D5D5C",
"'  c #635444",
"]  c #695744",
"[  c #675847",
"{  c #6C5944",
"}  c #61564A",
"|  c #65594D",
" . c #6B5C4C",
".. c #715D45",
"X. c #705F4B",
"o. c #645C53",
"O. c #6A5E52",
"+. c #635E5A",
"@. c #776047",
"#. c #73624C",
"$. c #7A654D",
"%. c #6C6155",
"&. c #66615A",
"*. c #6C645B",
"=. c #736554",
"-. c #786650",
";. c #766857",
":. c #7B6952",
">. c #72675A",
",. c #74695C",
"<. c #746A5E",
"1. c #7B6D5C",
"2. c #6C6760",
"3. c #6E6962",
"4. c #746C63",
"5. c #796E62",
"6. c #746E68",
"7. c #7C7165",
"8. c #76716B",
"9. c #7C746B",
"0. c #7A7673",
"q. c #7E7871",
"w. c #826D53",
"e. c #816F59",
"r. c #84725D",
"t. c #8B755C",
"y. c #8E785D",
"u. c #837564",
"i. c #867867",
"p. c #8B7964",
"a. c #81766A",
"s. c #84796D",
"d. c #8B7C6B",
"f. c #917F67",
"g. c #927F69",
"h. c #847C73",
"j. c #897F72",
"k. c #837F79",
"l. c #91826E",
"z. c #878077",
"x. c #8C8174",
"c. c #86817A",
"v. c #8B847B",
"b. c #8E887F",
"n. c #948572",
"m. c #978876",
"M. c #9A8974",
"N. c #91877B",
"B. c #93897D",
"V. c #9B8D7B",
"C. c #A08F7B",
"Z. c #8D8780",
"A. c #8E8983",
"S. c #8E8B88",
"D. c #938C83",
"F. c #998F82",
"G. c #938F8A",
"H. c #9B9184",
"J. c #97928B",
"K. c #9A948A",
"L. c #989590",
"P. c #9E9992",
"I. c #A39685",
"U. c #A1978A",
"Y. c #A59A8C",
"T. c #AA9D8C",
"R. c #A39B93",
"E. c #A99F91",
"W. c #ACA295",
"Q. c #A7A29A",
"!. c #ABA49A",
"~. c #B3A99B",
"^. c #A7A4A0",
"/. c #AEA9A1",
"(. c #B2ACA2",
"). c #B3AEA8",
"_. c #BAB2A5",
"`. c #B7B1AA",
"'. c #BAB4AB",
"]. c #C4BFB6",
"[. c #CCC6BC",
"{. c #D8D4CC",
/* pixels */
", 8 9 8 : # o e R Q Y n o.*./ v v &.3.R R *.%.q y v E 4.S.A.0.V Q 8.9.F V C E *.d.>.y ) 0.8.&.3.S.8.E ^ 3.&.E &.D.7 , q , @ X + ",
"$ ; ; 9 n = = 7 e ( D w q q r w t Z | G j j M g t l g t t k o.9.&.F D C D ~ _ E B M B c.K.D E / D C C E E Q Q E } _ E y @ ; ^ a ",
"+ X . X p ; * - : / b s s l C r q D b 5 g g k k l t g g w 5 < V q l u t u D C B l k t V 5 < t F z l u , y v n B y , q q w < n 4 ",
"q = ; r / D v R ~ 3.} } >.5.F.Z.8.>.,.%.*.>.| *._ B n C e < w *./ y , V / C R %.+.| +.^ V R _ 3.C p V ^ / / D C D Y V y l u 9 , ",
"y V 4.V D W D a.=.1.| 7.j.;. .;.,.G Z Z D p r l K [ ' ,.s.G S G G Z C C g k k B o.D ! Q *.1.d.Y.H.<.0.0./ F &.c.3.7.%.E p r C V ",
"; ; _ q # = : r z @.p.u.p.K A z k j k g 5 R n , b ' [ | u.P z g g 6 C ^ t t k e l z b a q Z $.m.p.;.` Q B t C _ F F F u ; # = u ",
", $ n y $ ; y Q Z [ 5.a.1.#.' n a u p C V Q.).9.&.>.7.d.x.;.=.' ~ %.%.| C C D T | G ~ ` _ Z =.V.u.} Q p q y V V F l b v @ O # ; ",
"} v n C C k.h.>.E / O.u.F.!.>.D F G _ / G  .=.%.1.x.X. .' ' / 9.9.| C q p v A.x.=.o.b.d.4.E b.U.>.| &.&.4.b.h./ C 8 q E p ; ; ; ",
"D - - 1 v v.;.' G W W Z >.4.b l z t < t g j h d k ' M z c z b O.*.B w l 9 $ / G l z E Z S Z | 1. .c k C c c k g v Q n b k v 9 q ",
", : ; < q n ~ W W G b l C n u l b B E D l l l u C 7.[ F B g k +.9./ l B &.c.D.~ B ~ &.b b C b.7.K z 9.7.l z g 6 C 6.k k r T 9 = ",
"C y v +.4.&.) 6.k.*.+.o.h.O./ / *.6.,.%.| *.4.9.=.d.x.%.Z.9._ D 4.,.&.v.7.1.u.<.7.i.z.s.h.| x.x.9.K.!.B.5.O.O.| D.j.>.>.} >.D p ",
"v y w l n Y e ^ ~ 6 o.-.G B b v C k j j M k %.[ S #.$.{ *.9.k g j x h %.M g j Z { $.=.7.s.[ P ~ } O.[ W  .| =.<.Y.T.V.} k l q E ",
"$ e v a a a 7 7 r 4 ~ W B E E E 3.z z z j t / G Z { P Z C ,.y k j t z ~ z z Z F K =.;._ >.C z p D E F D ' ' | | H.~.E.W : : = = ",
"9 Y Y ^ +.*.q.c.>.5.k./ ! &.2.v.b.! v / 8.o.z.q.~ C *.4.s.z.v.7.c.c.q.&.4.v.J.J.h.v.z.0.v.o.*.3.9.9.7.~ / / <.4.n.U.k.~ r e y Q ",
"Y a C E } 4._.{.].~.n.9.!.v.~ X.] ' D | *.G P U K G K.i.Z P ] D G _ G t C ` 8.~ / %. . .#.~ %.J.>.;.<. .W D D.~.U.a.=.} +.v q ) ",
"a i q g c | ~.[._.I.e.F k.} Z #.:.r.:.X.F P I S m z 9.| d j z b u ! 4.w l ^ ^ g ~ >.K X.$.C b 8.>.>.;.5.} q k.~.F.>.} k n n q 4 ",
"a i a F F E &.4.>.O.+.k.L.&.! 4.u.j.s.k.5.,.O.F B 5.].R.4.o./ T R J.(.s.&.3.4.0.G.F./ O.9.h.2.G.k.h.j.4./ o.6.s.+./ v k Q R p 9 ",
"3.2.! 4.>.7.%.o.h.h.B.F.F.3.} S.F.I.E.Y.u.j.`.j.| #.u.d.| C C B F / W %.Q.Q.C | 9.,.} E | 1.u.u.e.5.j.D.R.R.h.5.%.O./ %.N.h.4.>.",
") E 4 6 h h j N >. .=.[ } ' | } =.d.n.h.5.O.o.} h z c S Z n | S K K A Z / E > q c c Z c G K A Z c S S c  .d.d.j.F.j.=.] X.w.g.M.",
"+.6.5 t d g j z F O.| } =.>. .8.o.Q +.) +.) 6.9.Z z b W } 3.8.C Z b D E +.2.E y v b Z D %.5.;.,.' F G F / d.j.j.a.j.%.b ] ..r.C.",
"k.h.^ E E &.,.*.o.%.%.+.k.k.j.k.+./ a.^.Z.u.F.j.O.*.v.A.N.F.K.v.0.h.K.D.R.R.K.o.C / v.v.v.H.I.U.j.R E >.K.D.N.D.S.N.J.J.4.| } 7.",
"F D C D u R B w w g g b 5.b z g h h z 6.P H J J I D _ | K ....D c S E b g j z z g j 9.o.| d.i.d.%.v W Z G b b } >.,.e.u.' F n Y ",
"Z B k B G p 6 5 6 s s 6 O.k 1 > 6 s s g c N c c Z Z o.D N J K Z l h D Z M j j z j Z K.+.1.d.p.i.%.b  .W b b z j k } O.>.=.W r = ",
"C E Q E O.3.&.B l n b >.Z.*.C v n b / k.O.W } W v E v.h.| ! o.u v o.h.>.5.7.z.a.5.,.`.N.x.a.>.+.+.7.a.k.N.j.5.4.*.~ o.>.>.! o.) ",
"v a &.8.&.! 5.7.9.h.[ w.t.=. .q.5.=.O.1.;.[ =.k.b l b b b 2./.v w Z N A } N.W.U.H.W.~.!.k.| F ~ >.i.j.j.5.>.:.1.,.%.s.0.T E F E ",
"9 8 V _ Z l G G G | h m m f d t S A S c c c w } k w 5 w k r 9.l 1 s x m x | B.Y.E.W.U.W.T D >.| | }  .O.D c A N A M l v l b l q ",
"^ ) 8.k.~ V Z B ~ v.G I @.[ G *.u.O.} F D D E +.n b v r v +.k.E E F G } >.D.D.j.v.B.N.P.0.&.O.E v C / %.o.v v b z k n v n W ~ R ",
"x.x.N.d.| 4.&.u q o.4.,.z.K.b.F.R.k.4.O.s.O.>.5.O.4.o.o.o.} =.O.} O.7.h.%.1.1.#.' W O.d.r.' D l k &.3.} E C r D *.h.c.s.4.6.h.4.",
"] [  .:.' ! ~ 6 g g w g z G y.{ b 6 3 w } 4 q 6 w 4 w q k 5 2 w w k S D c N A c x x h J x g h z z ' %.>.} ~ W D r k z l j 4 r T ",
"G W F C C R b 6 g 6 g g g [ @.S z w w w p = ; 4 w q : k v q w l c k D F c c z z l l l c s g c z g b v F } W ~ W k w w k k w q r ",
") _ &._ o.Z.+.W ~ C C ~ E | 7.J.K.9.>.o.O.~ } E +.1.W 4.>.4.>.3.>.9.7.*.o.h.+.E / k.k.' E o.5.o.W =.%.o.4.0.*.+./ n n T ) o.} Y ",
"u 7 7 , B Z z u %.K.R v V u y ! 4.S K K ....P #.w.w.-.X.]  .} C D O.>.} -.4.) k r g z k h F } g g w w r n W g g w : 4 9 n n 8 8 ",
"u q e > t s d 6 l +.y l l u u w } x N J L L J X.#.w.]  .' F W } S >.W R b 9 O.D w 4 w d g k b 6 2 5 4 4 k o.6 w 2 6 w g | r : # ",
"n n ^ ! R O.%.W t 5 y t u C | | *.' Z b D D ' 4.=.' D C v v b R b } o.T o.0./ b l n v b C u u v q n n C 6.k.o.O.>.! r b ! p y R ",
"t q k b F 4.*. .D l z F 4.=.e.I.W.i.d.a. .$.:.w.r.{ | W c A G { [ s.Q.1.=.>.G  .%.} =.X.{ ' { S k O.} o.Q T +.3.8.~ K ~ k 2 b 8.",
"> > = 1 h D g h g s 6 5 w x ..p.n.d.p.>.z f x c H x 5 F h h d j j v / b c A ' :.r.5.e.L L K I A g F D ( Y i ( ~ C d h m j 2 = p ",
"q q 5 < B | b B l z u 5 q z P  .$.:. .=.c g d w g h E b 6 6 s h g C / k E ' ' %.1.5.=.S A W X.' l n b 2.+.R R n o.~ W F b l n o.",
"C ! v v | | E 9.B.B.} v v o.h.a.1.} ] =.>. .D b W ' d.>.D C O.' D } | / =.O.*.n.i.x.F.k.4.a.N.O.O. . .>.o.s.[ c O.O.[ } W ! E } ",
"k D y t k k u g V F [ F v E W.9.~ N J N N m N u ' w.t.f.d.d.V.a.u 5 g g h h z 9.n.M.T.T.g.4.o.d x c J H l 1.x x d g s s l 8 5 w ",
"w y 9 < t t < $ 8 y v W v v a.'.*.h h f s h h 4 ;.f.e.n.V.l.n.s.8 > q w d d g F $.p.p.1.{ E T j z c x c b | ' S g w g z T v k w ",
"V 4.~ u n D Q n / +.C F *.0.O.h.4.o.7.%.| / %.c.9.4.,.O.} ~ / / E q ; 9 9 o.>.v k l n } } 9./ / 2.a.O.=.j.a.i.%.R 5.>.O. . .=.O.",
"r u u q y C u ; r c K P -.O.c P 1.u.x.p.4.D ~ | O.u.m.5.o.u r g l d w ~ D [ ' Z F K >.j.l g q 4 4 F ~ ] { G S b E >.e.-...'  .O.",
"- > < t 5 9 > = - 6 s s c ~ 6 U w.#.K K G < w Z X.e.r.=.q : & - w 4 w F [  .K W ..{ O./ = 9 5 5 g b b K c c l k v } =.>...' W W ",
"$ > u q q _ p 8 y b g l v C w z ] G G ' / t t B } ' [ >.0.! / ! / o.*.&.W W W ' %.O.4.6.E ! ! E / R v l ~ r r T 6.+.>.s.+.T v E ",
"; q ! q < y y u ~ 2.b G F Z G F +.D C C C b | j.9.C k R ,.O.,.k.a.5.i.n.>.a.j.G.E.I.V.i.s.F.*.y q w k k l k D '  .X.A k v k k r ",
"5 : v q > > q w r C w Z A z Z A G M g 6 g M A P u 3 3 3 1 1 2 D W K $.e.e.f.d.=.M.C.M.n.n.N./ + : 6 s 2 6 q z F W ' k q r q q 9 ",
"u r T n y v u C u o.D l k l Z B F Z z k z M A Z Z 3 3 > - 2 2 u F S ] -.p.g.5./ 1.1.;.1.%.3.k.^ n v n v g o.6.4.7.k.s.o.r 9 r q ",
"v v C C / h.o.W / / E b B ~ ' G >.=.[ G %.F k b R v / 9.n v n o.3.4.4.O.>.O.o.E D v D } / 4.=.>.6.a.=. .W } O.>.a.O.[ D k k r q ",
"- - % * > u q > 5 > 4 k S  .x c N L I S >.z w u l d l k.Q y l h 8 9 ! A x s 6 u g l S M g g k t 9 T Z E E b S ' ~ w > > > > : : ",
"= : : ; 8 q 9 w w q q k D W x x H L L K %.b 5 q r 3 t C T r d w , r E u 1 1 6 4 2 g B z z l j w v O.| ~ D b b b +.E W n 9 : < p ",
", q r a n 8 y l k u b } ~ W v W ,.u.%.;.v.%.o.o.Q &.&.2.T T u R +.W.J.%.B g E _ +.v.c./ ~ F ,.V / a.4.b p v ! } j.j.j.O.b = ; 8 ",
"+ @ = - 4 > < < < 4 r R Z 6 w u g z l _ c.w E E b ' j.E b Q F F b _ o./ k 6 W q.} 1.>.w t M C R c k S b w l / b ' { ..J b - O O ",
", @ * : ; y y , , q 9 9 v 3 w v M z z u C 4 B C Z z , O O @ 4 > - Q n v 5 > O V b ' D 4 6 j ! V r k b k > r E l l D b b q O o X ",
"r @ O + $ q 8 @ ; , r _ F g w b G G G F Q V a < q 5 > @ O : , < - q v p w w p y r q < @ $ > B ^ q q q e @ = : : - : 9 < = @ O O ",
"q < , 8 q - - > 4 5 v $.w.$.J ..{ R u y i i 9 = @ w z g t w < e q - : : > < 6 3 - 1 - $ = > 4 v q 1 > * : - - - 1 2 : * % O % * ",
", - $ ; = = % - - 2 v c c c c A j = > $ # # & = = k Z b t w w q > - = = & = 2 s 1 1 = = q 1 < 8 = > > = @ * O % @ = @ * % X X o ",
"9 @ O = o o o O O O ; = , > q / ! C y , $ # @ = , q q < = @ , , $ = q > ; q y , < < = $ 9 q 8 0 i y < u 5 @ O X o = , ; $ 7 ; : ",
"0 O O @ & & = # * * : - u b u ( ^ l / C 1 5 w g S P 4 1 5 < 1 # @ e / w > q 9 q v t q , < > > 9 i y < 5 6 4 > = ; < ; $ $ 7 q r ",
"7 o o o O O , < - - - - u z 5 u < > t q 1 1 > 6 M M 4 1 > < > O O 9 Y > : 5 > 8 , > > @ , = > , $ @ > $ O - < , = ; , @ : $ : q ",
"a , @ = , 9 e < : < , > ; w 4 y = = : @ @ = , > 4 w > : = O 8 u v a 9 $ # ; $ = + o o o o o o . O @ $ y V q n C y e ; o + + + ; ",
"o . . o o O @ = > > , r t u u u 9 < y w < < < 5 , q 5 < = & y n q 9 : = = ; $ = = @ $ @ @ @ = = > < 4 w r = @ & % O o X + X X X ",
"      . . . X O = @ , y k l b z u 8 t < , > < 5 = 1 1 > - = , 9 : @ % O @ $ + @ @ @ $ O = @ = = - > : > 8 O o O O o o . + X . . ",
"8 $ + ; , 9 9 < 8 9 < q < q < q = = < < = , < < < r q < = O i R V V 8 ; @ 7 ; ; @ @ @ o o o o O = > < u C q q y 5 , # + @ @ + + ",
"a $ o + @ $ , 7 = : - = < g q n > > < @ = > = 6 d 6 > > = = = = , , 9 = : , = ; @ = O @ @ @ @ @ @ o $ 7 7 ; a a q 0 , o $ + + 7 "
};
